<?xml version="1.0" encoding="UTF-8"?>
<svg width="64px" height="64px" viewBox="0 0 64 64" version="1.1" xmlns="http://www.w3.org/2000/svg" xmlns:xlink="http://www.w3.org/1999/xlink">
    <!-- Generator: Sketch 63.1 (92452) - https://sketch.com -->
    <title>Animals</title>
    <desc>Created with Sketch.</desc>
    <g id="Animals" stroke="none" stroke-width="1" fill="none" fill-rule="evenodd">
        <rect id="Rectangle" fill="#E69E22" transform="translate(39.294229, 32.418584) rotate(-330.000000) translate(-39.294229, -32.418584) " x="30.2942286" y="9.41858429" width="18" height="46" rx="9"></rect>
        <rect id="Rectangle-Copy" fill="#F15F1B" transform="translate(25.294229, 32.418584) rotate(-30.000000) translate(-25.294229, -32.418584) " x="16.2942286" y="9.41858429" width="18" height="46" rx="9"></rect>
        <path d="M32.2937259,26.5437259 L40.0884573,40.0429399 C41.7288163,42.8841251 41.6439764,46.2479376 40.1589668,48.9213519 L40.0884573,49.0429399 C39.7515825,49.6264241 39.3592384,50.1579164 38.9219314,50.6346017 L39.0102691,50.5378272 C38.9618589,50.5920425 38.9127226,50.6457385 38.8628643,50.6988998 L38.8625295,50.6987207 C38.2723158,51.3285708 37.5804746,51.8832293 36.7942286,52.3371686 C36.5778582,52.4620901 36.3584567,52.5770062 36.1365599,52.6820605 C35.0180765,53.209193 33.7992784,53.5023468 32.5609449,53.540234 L32.6636448,53.537187 C32.5778473,53.5406382 32.4920771,53.5428549 32.4063608,53.5438442 L32.5609449,53.540234 C32.3832206,53.5456716 32.205094,53.5458512 32.0268039,53.540709 L32.1820785,53.5436346 C32.0964384,53.5424864 32.0108754,53.540116 31.9254163,53.5365305 L31.9248125,53.537187 C30.7222342,53.48605 29.5396295,53.1947098 28.4519296,52.6824262 C28.2300006,52.5770062 28.0105991,52.4620901 27.7942286,52.3371686 C26.9814599,51.8679163 26.2695725,51.2910351 25.6661753,50.6349218 L25.7259277,50.6987207 C25.6762675,50.6456397 25.6271705,50.5918632 25.5786518,50.5373951 L25.5781882,50.5378272 C25.1765428,50.08598 24.814152,49.5870672 24.5,49.0429399 L24.4294905,48.9213519 C22.9444809,46.2479376 22.859641,42.8841251 24.5,40.0429399 L32.2937259,26.5437259 Z" id="Combined-Shape" fill="#1D39EB"></path>
        <rect id="Rectangle" x="0" y="0" width="64" height="64"></rect>
    </g>
</svg>