<?xml version="1.0" encoding="UTF-8"?>
<svg width="64px" height="64px" viewBox="0 0 64 64" version="1.1" xmlns="http://www.w3.org/2000/svg" xmlns:xlink="http://www.w3.org/1999/xlink">
    <!-- Generator: Sketch 63.1 (92452) - https://sketch.com -->
    <title>Arts-culture</title>
    <desc>Created with Sketch.</desc>
    <g id="Arts-culture" stroke="none" stroke-width="1" fill="none" fill-rule="evenodd">
        <path d="M26.0850143,51.43768 L26.0850143,51.43768 C18.6423357,53.62168 10.8696571,49.25008 8.72465714,41.67088 L3.99976429,24.98248 L30.9525143,17.07208 L35.6774071,33.76168 C37.8224071,41.33968 33.5276929,49.25368 26.0850143,51.43768" id="Fill-1" fill="#1D39EB"></path>
        <path d="M36.9278289,44.2590244 L36.9278289,44.2590244 C29.3062592,41.7695361 25.2018666,33.7405793 27.7611481,26.3268545 L33.3984182,10 L61,19.0154701 L55.3627299,35.3435146 C52.8034484,42.7572394 44.5493985,46.7497027 36.9278289,44.2590244" id="Fill-4" fill="#F15F1B"></path>
        <path d="M30.9542408,17.079 L35.6776429,33.76168 C36.626496,37.113852 36.3152347,40.531772 35.0287914,43.4903697 C28.6453078,40.3828994 25.423838,33.0982554 27.7613838,26.3268545 L30.9542408,17.079 Z" id="Combined-Shape" fill="#E69E22"></path>
        <rect id="Rectangle" x="0" y="0" width="64" height="64"></rect>
    </g>
</svg>