<?xml version="1.0" encoding="UTF-8"?>
<svg width="64px" height="64px" viewBox="0 0 64 64" version="1.1" xmlns="http://www.w3.org/2000/svg" xmlns:xlink="http://www.w3.org/1999/xlink">
    <!-- Generator: Sketch 63.1 (92452) - https://sketch.com -->
    <title>Community-development</title>
    <desc>Created with Sketch.</desc>
    <g id="Community-development" stroke="none" stroke-width="1" fill="none" fill-rule="evenodd">
        <path d="M41,33.517909 L41,50 L7,50 L7,33.517909 C7,23.2918273 14.612148,15 24,15 C33.3892436,15 41,23.2918273 41,33.517909" id="Fill-1" fill="#1D39EB"></path>
        <path d="M57,33.517909 L57,50 L23,50 L23,33.517909 C23,23.2918273 30.612148,15 40,15 C49.3892436,15 57,23.2918273 57,33.517909" id="Fill-4" fill="#E69E22"></path>
        <path d="M41,33.517909 L41,50 L23,50 L23,33.517909 C23,26.4421067 26.6445179,20.2923801 32.0000383,17.1748855 C37.3561484,20.2923801 41,26.4421067 41,33.517909 Z" id="Combined-Shape" fill="#F15F1B"></path>
        <rect id="Rectangle" x="0" y="0" width="64" height="64"></rect>
    </g>
</svg>