<?xml version="1.0" encoding="UTF-8"?>
<svg width="64px" height="64px" viewBox="0 0 64 64" version="1.1" xmlns="http://www.w3.org/2000/svg" xmlns:xlink="http://www.w3.org/1999/xlink">
    <!-- Generator: Sketch 63.1 (92452) - https://sketch.com -->
    <title>Food-insecurity</title>
    <desc>Created with Sketch.</desc>
    <g id="Food-insecurity" stroke="none" stroke-width="1" fill="none" fill-rule="evenodd">
        <path d="M49,35.5 C49,47.3741117 39.5979695,57 28,57 C16.4020305,57 7,47.3741117 7,35.5 C7,23.6258883 16.4020305,14 28,14 C39.5979695,14 49,23.6258883 49,35.5" id="Fill-1" fill="#1D39EB"></path>
        <path d="M49.3111478,27.1306686 C42.4266365,34.2801725 28.5337735,31.4455674 28.5337735,31.4455674 C28.5337735,31.4455674 25.8042316,17.0192648 32.6900066,9.86976095 C39.5745179,2.71894473 53.4661172,5.55486212 53.4661172,5.55486212 C53.4661172,5.55486212 56.1956591,19.9811647 49.3111478,27.1306686" id="Fill-4" fill="#E69E22"></path>
        <path d="M47.8402019,28.435965 L47.6463783,28.5808472 C40.4139463,33.8695169 28.5337735,31.4455674 28.5337735,31.4455674 C28.5337735,31.4455674 26.6616285,21.5508191 29.929642,14.0894287 C38.2626613,14.8671371 45.1881883,20.6276368 47.8402019,28.435965 Z" id="Combined-Shape" fill="#F15F1B"></path>
        <rect id="Rectangle" x="0" y="0" width="64" height="64"></rect>
    </g>
</svg>