<?xml version="1.0" encoding="UTF-8"?>
<svg width="64px" height="64px" viewBox="0 0 64 64" version="1.1" xmlns="http://www.w3.org/2000/svg" xmlns:xlink="http://www.w3.org/1999/xlink">
    <!-- Generator: Sketch 63.1 (92452) - https://sketch.com -->
    <title>LGBTQ-rights</title>
    <desc>Created with Sketch.</desc>
    <g id="LGBTQ-rights" stroke="none" stroke-width="1" fill="none" fill-rule="evenodd">
        <path d="M32,11.5517241 C46.9116882,11.5517241 59,23.6400359 59,38.5517241 L59,56.5517241 L59,56.5517241 L5,56.5517241 L5,38.5517241 C5,23.6400359 17.0883118,11.5517241 32,11.5517241 Z" id="Rectangle" fill="#E69E22"></path>
        <path d="M32,22.5517241 C41.9411255,22.5517241 50,30.6105986 50,40.5517241 L50,56.5517241 L50,56.5517241 L14,56.5517241 L14,40.5517241 C14,30.6105986 22.0588745,22.5517241 32,22.5517241 Z" id="Rectangle-Copy" fill="#F15F1B"></path>
        <path d="M32,32.5517241 C36.418278,32.5517241 40,36.1334461 40,40.5517241 L40,56.5517241 L40,56.5517241 L24,56.5517241 L24,40.5517241 C24,36.1334461 27.581722,32.5517241 32,32.5517241 Z" id="Rectangle-Copy-2" fill="#1D39EB"></path>
        <rect id="Rectangle" x="0" y="0" width="64" height="64"></rect>
    </g>
</svg>