<?xml version="1.0" encoding="UTF-8"?>
<svg width="64px" height="64px" viewBox="0 0 64 64" version="1.1" xmlns="http://www.w3.org/2000/svg" xmlns:xlink="http://www.w3.org/1999/xlink">
    <!-- Generator: Sketch 63.1 (92452) - https://sketch.com -->
    <title>Womens-rights</title>
    <desc>Created with Sketch.</desc>
    <g id="Womens-rights" stroke="none" stroke-width="1" fill="none" fill-rule="evenodd">
        <path d="M38.9998759,31 C38.9998759,40.9414648 30.9400803,49 20.9998759,49 C11.0584111,49 2.99987586,40.9414648 2.99987586,31 C2.99987586,21.0585352 11.0584111,13 20.9998759,13 C30.9400803,13 38.9998759,21.0585352 38.9998759,31" id="Fill-1" fill="#E69E22"></path>
        <path d="M60.9998759,31 C60.9998759,40.9414648 52.9413406,49 42.9998759,49 C33.0596714,49 24.9998759,40.9414648 24.9998759,31 C24.9998759,21.0585352 33.0596714,13 42.9998759,13 C52.9413406,13 60.9998759,21.0585352 60.9998759,31" id="Fill-4" fill="#F15F1B"></path>
        <path d="M39,31 C39,36.7982824 36.258287,41.9560457 32.0008662,45.248035 C27.7421411,41.9568511 25,36.7987351 25,31 C25,25.2012649 27.7421411,20.0431489 32.000131,16.751194 C36.258287,20.0439543 39,25.2017176 39,31 Z" id="Combined-Shape" fill="#1D39EB"></path>
        <rect id="Rectangle" x="0" y="0" width="64" height="64"></rect>
    </g>
</svg>