<?xml version="1.0" encoding="UTF-8"?>
<svg width="360px" height="428px" viewBox="0 0 360 428" version="1.1" xmlns="http://www.w3.org/2000/svg" xmlns:xlink="http://www.w3.org/1999/xlink">
    <!-- Generator: Sketch 63.1 (92452) - https://sketch.com -->
    <title>Mission-pink line</title>
    <desc>Created with Sketch.</desc>
    <g id="Homepage" stroke="none" stroke-width="1" fill="none" fill-rule="evenodd">
        <g id="Mission-pink-line" fill="#E2D4D5">
            <path d="M359.999408,0.421836768 L360.000357,34.9568261 C333.667205,34.6563885 321.22424,51.4213934 306.407433,99.6098602 L305.89102,101.319949 C305.000755,104.423618 294.739098,139.371613 290.475104,152.633864 L289.954424,154.235683 C288.050091,160.018054 286.143197,165.485589 284.178129,170.762621 C273.20204,200.236859 254.628035,217.011424 228.827868,222.63614 C218.856132,224.810087 208.12816,225.302729 195.57851,224.516454 L193.912282,224.405755 C185.786494,223.842884 180.861983,223.252801 164.325586,220.974167 L160.598942,220.459438 C130.659658,216.316412 115.233699,215.498803 99.2408782,218.488679 L98.7560582,218.580447 C78.8084364,222.402574 62.6707036,232.613451 48.5929897,252.267303 C30.2563124,277.867116 31.4162609,303.567796 50.6242231,337.557376 C59.1600904,352.662078 71.0743063,369.086738 88.0051636,389.611363 L88.7901559,390.561575 C94.3351356,397.263814 108.692483,413.943991 120.84299,428.00016 L75.239563,427.999243 C69.892357,421.759233 65.285656,416.343933 62.5039582,412.993501 L60.4714405,410.531268 C42.8206934,389.064967 30.092509,371.456652 20.5423235,354.557056 C-4.74791639,309.80454 -6.54836393,269.912489 20.5026067,232.146662 C39.776597,205.238304 63.6666086,190.122305 92.2537082,184.644783 C104.048187,182.384865 116.402238,181.780106 130.132341,182.484629 L131.771956,182.573704 C141.024926,183.104706 149.741538,184.09114 163.672004,186.00333 L174.136657,187.442527 C185.927127,189.045743 190.18885,189.516098 196.578279,189.954514 L196.838499,189.972273 C206.867786,190.653086 214.82695,190.323893 221.467817,188.876113 C235.513966,185.8139 244.837719,177.393427 251.797432,158.704418 C253.420483,154.345843 255.010584,149.816144 256.604071,145.031642 L257.135409,143.427256 C259.72703,135.557985 265.940027,114.680739 269.742317,101.793393 L272.882397,91.0847566 L273.157886,90.179853 L274.034833,87.3362572 C282.963681,58.627672 290.8577,40.8570776 302.646543,26.6630878 C317.074582,9.29145593 336.083835,0.322250023 359.999408,0.421836768 Z" id="Combined-Shape"></path>
        </g>
    </g>
</svg>