<?xml version="1.0" encoding="UTF-8"?>
<svg class="red-line" width="280" height="417" viewBox="0 0 280 417" version="1.1" xmlns="http://www.w3.org/2000/svg" xmlns:xlink="http://www.w3.org/1999/xlink">
    <!-- Generator: Sketch 63.1 (92452) - https://sketch.com -->
    <title>Mission-red line</title>
    <desc>Created with Sketch.</desc>
    <g id="Homepage" stroke="none" stroke-width="1" fill="none" fill-rule="evenodd">
        <path d="M275.114326,177.572713 L274.882459,181.39861 C271.044545,243.679034 264.7162,295.686402 255.376789,334.395505 C249.736337,357.773512 243.016161,376.245805 234.807279,389.652447 C224.236595,406.916355 210.389624,416.902592 193.295154,416.247938 C177.856605,415.656418 164.80426,408.540965 154.734179,396.167245 C146.697924,386.292611 140.594495,373.222479 135.755864,356.817769 L135.483326,355.885638 C128.341423,331.244345 124.708627,305.119909 119.868666,253.391463 L118.397024,237.513539 C114.376844,194.470189 111.917448,174.814555 107.507579,155.310827 L107.192037,153.935763 C102.008261,131.677828 95.368688,119.287964 88.7950111,116.279749 C76.8695225,110.822486 61.7712519,107.724962 42.6674102,106.567815 L40.6616542,106.453837 C28.9046664,105.824854 17.4421695,105.862055 0.00163852242,106.516468 L0.00132662073,71.9388183 C18.2816574,71.2711691 30.4937013,71.2685236 43.6107201,72.0109101 C67.1326831,73.3421872 86.5685503,77.2618591 103.173008,84.8602805 C113.861271,89.7513922 122.141492,98.6529954 128.566683,110.825624 C133.662381,120.479505 137.67403,132.329287 140.975239,146.662581 L141.510042,149.030289 C146.068643,169.559232 148.603175,189.662274 152.528087,231.394693 L154.402982,251.574705 C158.917892,299.589539 162.340386,324.162618 168.477818,345.597985 L168.670501,346.266842 C175.775612,370.781196 184.358224,381.327172 194.617749,381.72026 C197.119264,381.816059 200.648093,379.271118 205.339426,371.609292 C211.336018,361.815733 216.91971,346.467389 221.787608,326.291386 C230.741194,289.181416 236.920986,237.629267 240.622521,175.517192 C244.081336,117.47799 245.124988,56.4393576 244.6444,-0.00158053371 L279.198865,-0.00146678071 C279.680169,57.0686419 278.620655,118.736227 275.114326,177.572713 Z" id="Mission-red-line" fill="#F15F1B" fill-rule="nonzero"></path>
    </g>
</svg>