<svg xmlns="http://www.w3.org/2000/svg" viewBox="0 0 468.71 410.5"><defs><style>.cls-1{fill:#f15f1b;}.cls-2{fill:#b64213;}</style></defs><title>RR-web-Artboard 7</title><g id="Layer_2" data-name="Layer 2"><path class="cls-1" d="M-16,284.72C15.42,266.58,26,224.09,36.27,183c6.57-26.32,12.76-51.18,24.29-71.76,18.2-32.52,40.8-48.62,69.11-49.18,23.44-.47,46,9.8,69.88,20.68,33.71,15.36,65.54,29.86,99,15.18,32.75-14.38,52.65-34.08,59.13-58.55C370.24-8,331.27-61.19,330.87-61.72L360.2-83.66c2,2.73,49.91,67.56,32.94,132.19-9.43,35.9-36.31,63.79-79.88,82.91a106.71,106.71,0,0,1-38.26,9C241.39,142,210.55,128,184.37,116.06c-20-9.1-38.86-17.7-54-17.39-9.83.18-23,3.84-37.9,30.45-9.13,16.31-14.75,38.86-20.7,62.73C60.27,238.11,58.14,293.71-24.3,328.1Z"/><path class="cls-2" d="M33.17,249.75c-1.56,1.68,1.67.45,0,0Z"/><path class="cls-2" d="M32.08,233.75c-.63-.16,1.66-2.92,0-3.33C32.16,232,30.84,234.08,32.08,233.75Z"/><path class="cls-2" d="M32.72,219.76c.1-.94,0-1.78-.68-2.25C31.94,218.46,32,219.3,32.72,219.76Z"/><path class="cls-2" d="M27,244c-1.84-.46-1.1,2,0,0Z"/><path class="cls-2" d="M30.48,253l.07-.08c-.94-.11-.15-1.24-.88-1.47-.61.81.12,2.18.72,1.65a.33.33,0,0,0-.06.41c.67-.37,1,.09,1.64-.23C32.11,252.33,31,252.56,30.48,253Z"/><path class="cls-2" d="M29.74,262.86c.23-.08.46-.13.52.22l.75-.3C31.22,261.63,29.3,262.19,29.74,262.86Z"/><path class="cls-2" d="M31.76,264.65c-2-.71-.4,1.56,0,0Z"/><path class="cls-2" d="M33.46,259.47l-.79-.2c-.09.4-.43.39-.59.69C32.71,260.07,33.43,260.35,33.46,259.47Z"/><path class="cls-2" d="M32.21,263.6c-.5.2-.61-.52-1.05-.45C31,264.09,32.46,264.7,32.21,263.6Z"/><path class="cls-2" d="M27.76,250.16a2.21,2.21,0,0,0-.21-.33c-.32.09-.53.51-.63.93a4.48,4.48,0,0,1-.47.28.62.62,0,0,0,.39.2c0,.38,0,.67.19.54a6.6,6.6,0,0,0,.75-.86,10,10,0,0,1,1.9-1.14A2.22,2.22,0,0,0,27.76,250.16Z"/><path class="cls-2" d="M26.85,247.81c.93.11.15,1.24.87,1.47a1.93,1.93,0,0,1,.69-1.07C28.2,248,27.15,246.85,26.85,247.81Z"/><path class="cls-2" d="M29.87,248c-.21,1.15,1.71.59,1.27-.08C30.66,248.13,30.43,247.68,29.87,248Z"/><path class="cls-2" d="M28.76,259.34c-1,.73-1.36-.21-2.4.52C26.78,260.93,29.25,260.33,28.76,259.34Z"/><path class="cls-2" d="M10.65,274.85c0,.28-.35,1.82.6,1.5C11.27,276.08,11.61,274.54,10.65,274.85Z"/><path class="cls-2" d="M27.25,246.91c.28,1,1.17.65,1.95.52l-.3-.75c-.12-.22-.24-.42-.53-.22C28.51,247.08,27.66,247.05,27.25,246.91Z"/><path class="cls-2" d="M27.26,257.77c1.72.63.58-1.84,0,0Z"/><path class="cls-2" d="M31.81,256.14c-.41.49-2.7.6-1.67,1.66C30.49,257.23,33.19,256.09,31.81,256.14Z"/><path class="cls-2" d="M26.64,251.92a1.11,1.11,0,0,0,.48,1.37A1.11,1.11,0,0,0,26.64,251.92Z"/><path class="cls-2" d="M29.21,262.63c-.6.2-.67-.84-1.42-.3C27.77,263.24,29.43,263.62,29.21,262.63Z"/><path class="cls-2" d="M28.39,263.83c.22,1.34,1,.27.75-.3-1,.77-2.49-.86-2.55.15.46.12.5,1.78,1.87,1.42C28.35,264.64,28,264.07,28.39,263.83Z"/><path class="cls-2" d="M23.8,251.61c-.1.51.37.67.1,1.28,1.34-.14,1,.37,2.05.1-.18-.49.41-3.07-.29-2.15C25.59,253.64,23.89,251.19,23.8,251.61Z"/><path class="cls-2" d="M25.38,245.49s.16.34.15.37C24.56,248.61,27.05,244.45,25.38,245.49Z"/><path class="cls-2" d="M24,249.53c.29.54.42,1.44,1,1.35-.4-.69.21-.95.3-1.42A1.89,1.89,0,0,1,24,249.53Z"/><path class="cls-2" d="M23.05,236.43c.37-.15.56.13.9.08C24.73,235.49,22.89,235.47,23.05,236.43Z"/><path class="cls-2" d="M24.84,234.41c-2.28-.92-.71,1.72,0,0Z"/><path class="cls-2" d="M24.05,237.53c1.52-1-1.14-1.55,0,0Z"/><path class="cls-2" d="M12.83,274.85c.11,1.22-.4.65-1.35,1C11.74,277.71,15,274.94,12.83,274.85Z"/><path class="cls-2" d="M10.8,273.06c-.12-.47.33-1.12-.45-1.13C10.48,272.4,10,273.05,10.8,273.06Z"/><path class="cls-2" d="M17.13,258.24q-.43,1.25.87,1.47c0-.71.84-.86.3-1.17-.19.41-.59.49-1,.58C17.31,258.79,17.51,258.35,17.13,258.24Z"/><path class="cls-2" d="M15,264c.17-1.27-1.65-1.29-1.43-.3C14.25,263.29,14.51,263.9,15,264Z"/><path class="cls-2" d="M32.14,245c.51.14.18.78.58,1,.08-.79.73-.64,1.08-1C33.2,244.92,32.4,244.49,32.14,245Z"/><path class="cls-2" d="M33.48,226.61c0-1.14,1-.59,1.18-1.36C33.77,224.59,32.59,226.13,33.48,226.61Z"/><path class="cls-2" d="M32.76,236a1.11,1.11,0,0,0,1.37-.49A1.11,1.11,0,0,0,32.76,236Z"/><path class="cls-2" d="M35.12,233.27c-.4-.1-.39-.44-.69-.59-.11.62-.39,1.34.49,1.37Z"/><path class="cls-2" d="M24,238.68c-.29,2,2.2,1.59,0,0Z"/><path class="cls-2" d="M31.83,259.41l-.54-.52a1.27,1.27,0,0,1,.31-.31c-.56-.19-.79,0-.88.37-.45-.09-.33,0,0,.15a2.24,2.24,0,0,0,.12.95c.45-.32.42-.53.4-.74C31.61,259.46,32,259.56,31.83,259.41Z"/><path class="cls-2" d="M25.12,238.22v0a1.05,1.05,0,0,0,.81-.76c.37-.1.6-.2,0-.67-.05.37-1,.6-1.12,1-.33.09-.59.15-.62.44a1.36,1.36,0,0,0,.92,0Z"/><path class="cls-2" d="M26.56,233.28c-.22.12-.42.24-.22.53a1.09,1.09,0,0,1,1.2.82c.41-.24,1.09-.36,1-.82-1,.47-1.52-.06-1.2-.83Z"/><path class="cls-2" d="M36,238.06c-.23-2-1.93-.1,0,0Z"/><path class="cls-2" d="M34,242.56l.78.19c.24,0,.48.06.49-.29-.34-.15-.25-.35-.05-.55l0,.05.74-.3c.21-1.11-1.53-.63-1.29,0C34.43,241.89,34.32,242.39,34,242.56Z"/><path class="cls-2" d="M28.3,245.19c.2-.09.3-.48-.15-.38,0,1.61-.91-.64-1.65.23.71,1.49,2.53.37,3.52,1.19C29.87,244.9,28.58,246.22,28.3,245.19Z"/><path class="cls-2" d="M24.31,274.21c-.21-.18-1.26-1.36-1.57-.4C23,274,24,275.16,24.31,274.21Z"/><path class="cls-2" d="M22.92,278a4.29,4.29,0,0,0-2.45,1.46l1.57.4C22.21,279,23.22,278.61,22.92,278Z"/><path class="cls-2" d="M24.48,253.86c-.08.24-.18.45-.49.3.12-.41.07-1-.29-.49C23.19,254.84,25.69,254.87,24.48,253.86Z"/><path class="cls-2" d="M23.52,265.78c.24-.07.47-.12.53.23l.75-.3C25,264.55,23.08,265.12,23.52,265.78Z"/><path class="cls-2" d="M20.85,282.9c-.08.23-.17.44-.49.29.61-1.21-.62-.8-.78-.2C20.17,283.51,21.77,284.08,20.85,282.9Z"/><path class="cls-2" d="M21,274.62c.49-.3.38-.87.82-1.2-.2-.26-.31-.73-.68-.6C22.23,273.75,19.69,274.63,21,274.62Z"/><path class="cls-2" d="M19.5,278.39c.17-.64,1.14.06,1.37-.48C20.16,277.37,18.36,277.63,19.5,278.39Z"/><path class="cls-2" d="M23.23,267.2a1.62,1.62,0,0,0-1.08-.21.57.57,0,0,0-.16,0l-.21.12a3.07,3.07,0,0,0-1.55,1.33C20.83,268.27,22.85,267.78,23.23,267.2Z"/><path class="cls-2" d="M21.2,268.42c-.08.61-.51,1.41,0,1.67.14-.52.78-.19,1-.59C21.64,269.27,21.68,268.69,21.2,268.42Z"/><path class="cls-2" d="M22,272.9c.07.23.13.46-.22.52C22,274.58,23,272.26,22,272.9Z"/><path class="cls-2" d="M22.68,249.61c1,.86-.34,2.51,1.13,1.72C23.71,251.29,24,248.93,22.68,249.61Z"/><path class="cls-2" d="M19.39,247.89c5.38,0-1.71-1.19-.08.9C19.28,248.59,19,247.89,19.39,247.89Z"/><path class="cls-2" d="M18.7,255.31c.28.16.77.21.69.59-.25,0-.48-.06-.49.29a2.44,2.44,0,0,0,.87.2c.16.37.34.69.68.63a.81.81,0,0,0-.07-.82,1,1,0,0,0,.28-.39C20.48,255.52,19,254.42,18.7,255.31Z"/><path class="cls-2" d="M17.51,261.66c1.34-.13.79.86,1.36,1.18.06-1.57,2,0,2.06-1.56-1-.48-2.4,1.11-2.83-.3,1-.57.56-.68,1.17.3.85-.61.09-.51.4-1.57C18.26,259.22,18.12,260.84,17.51,261.66Z"/><path class="cls-2" d="M20.86,255c.19-1.31,1.58-1.82,2.25-.68.38-1-.56-1.22-1.27-1.57C21.87,253.82,19.71,254,20.86,255Z"/><path class="cls-2" d="M18.75,243.67c.2-.77,1.19-.22,1.17-1.36C19.07,241.69,18.18,243.74,18.75,243.67Z"/><path class="cls-2" d="M21,249.84c-1.29,0-1,2.22,0,2.17C20.24,250.94,21.16,250.61,21,249.84Z"/><path class="cls-2" d="M19.16,244.07c.72-.24.76,1.14,1.57.68-.26-1.74,1.54.91,1.13-.46C21.25,244,19.25,243.21,19.16,244.07Z"/><path class="cls-2" d="M20.18,252.77c-1.52,1,1.14,1.56,0,0Z"/><path class="cls-2" d="M20.88,248.38c-.93.81,3.37-.5,0,0Z"/><path class="cls-2" d="M17.58,267.92a1.11,1.11,0,0,0-.48-1.37A1.12,1.12,0,0,0,17.58,267.92Z"/><path class="cls-2" d="M25.09,259.94c1.84.46,1.09-2,0,0Z"/><path class="cls-2" d="M25.31,255.07c1.72.63.58-1.84,0,0Z"/><path class="cls-2" d="M24.23,269.61c-.74-.31-.91.33-1.37.48,0-.24.05-.47-.3-.49a1.33,1.33,0,0,0,.21,1.21,4.19,4.19,0,0,1-1.79-.53c.09.74-.46,0-.9-.08.1,1.07.14,1.94,1.28,2.1-.88-1.84.49-1.16,1.39-.86-.31.29-.11,1.29.88.51a1.84,1.84,0,0,0-.41-.47.39.39,0,0,1,0-.24.68.68,0,0,0,1.09-.36c-.21-.12-.52-.18-.64-.35v0h0a.24.24,0,0,1,0-.21C23.74,269.9,24.07,269.91,24.23,269.61Z"/><path class="cls-2" d="M19.79,280.55c-1.61-.47,0-.28.19-.79-.71-.28.39-.58-.19-.88-.9,1.31-1.59-.48-2.64.58-.33-1.91-.29,1.63,1.27-.09C17.76,280.25,19.3,281.43,19.79,280.55Z"/><path class="cls-2" d="M23,276c-1.05-.63-.29-.7,0-1.66C21.36,273.4,21.69,277.65,23,276Z"/><path class="cls-2" d="M16.43,283.83c.21-.08.3-.47-.15-.37,0,.63-.18,1.16-.15,1.8.46-.43,2.11-.34,1.72-1.13-1.12.58.52-1.46-.82-1C17.38,283.72,16.93,284.37,16.43,283.83Z"/><path class="cls-2" d="M28.22,243.91c.57-.12.88.37,1.42.3C29.66,243.31,28,242.92,28.22,243.91Z"/><path class="cls-2" d="M26.2,238.91c-.24.53-.81.49-1.08,1C25.83,240.43,27.13,239.31,26.2,238.91Z"/><path class="cls-2" d="M17.15,257.48c-2.2-.33-.41,1.59,0,0Z"/><path class="cls-2" d="M24.64,258.82c-2-.71-.4,1.56,0,0Z"/><path class="cls-2" d="M26.56,245.66c0,1.27-1.26.48-1.27,1.75C26.33,248.17,27.38,246.19,26.56,245.66Z"/><path class="cls-2" d="M20.07,266.79l.25.16c.29-.72.94-1.25.53-1.73,1-.16,1.74.11,2.38-.6a1.27,1.27,0,0,0,.13.19,4.38,4.38,0,0,0,.29-.78s0,0,0,0l0,0c.22-1-.7-.46-.53.33-1,.43-2.14.11-2.62.62l-.07-.05a1.72,1.72,0,0,1,0,.24.75.75,0,0,0-.09.2h0a2,2,0,0,1-.27.52,1.13,1.13,0,0,0-.36.16s.05.15.1.26a.31.31,0,0,0,0,.25C19.4,267.74,19.79,267.36,20.07,266.79Z"/><path class="cls-2" d="M28.24,240.68c-.19.6-1.07,0-1.08,1C27.88,242.2,29,240.74,28.24,240.68Z"/><path class="cls-2" d="M19.48,262.19c-1.56,1.68,1.67.45,0,0Z"/><path class="cls-2" d="M20.53,264.51c.08-.6.5-1.41,0-1.66C20.45,263.45,20,264.25,20.53,264.51Z"/><path class="cls-2" d="M20.54,273.5c.07-.78-.41-2.41-.83-1,.24-.07.47-.12.53.23C18.9,273,20,273.72,20.54,273.5Z"/><path class="cls-2" d="M17.17,272.68c1.28.18.38-2-.23-1.65C17.31,271.7,16.85,272,17.17,272.68Z"/><path class="cls-2" d="M19.12,277.54c-1.35,1.39,1.48-.73-.83-1,1.11,0,1.16-1.93.15-1.8.57,1.58-.21.18-.75.3.19.74-.7,0-.6.68C18.68,275.7,17.64,277.32,19.12,277.54Z"/><path class="cls-2" d="M16.73,286.75c.95-.31,1.48-.81,1.57-1.5C17.79,285,16.24,285.69,16.73,286.75Z"/><path class="cls-2" d="M19.65,263c-.56.55-1.76,0-2.54.19.05.41-.38,1.1-.44,1.57-.28,0-.45,0-.33.39.95-.06,1.39,1.1,2.47.75-.38-1-.93-.51-.6-1.5a1.26,1.26,0,0,1-1.07.38,2.74,2.74,0,0,1,.47-.92c.38-.06.87-.11.82,0a.87.87,0,0,0,.08-.35,2.22,2.22,0,0,1,.55.16c-.64.39-.54,1.12,0,1.66C18.86,264.23,20.39,263.27,19.65,263Z"/><path class="cls-2" d="M25.62,264.51c.12.46-.33,1.11.45,1.12C26,265.17,26.4,264.51,25.62,264.51Z"/><path class="cls-2" d="M12.36,256.36c.9,0,.92-1.8.3-1.42C12.86,255.54,11.82,255.61,12.36,256.36Z"/><path class="cls-2" d="M10.57,259.49c.54.14.14.84.32,1.2-.31.36-.43.66.5.83-.32-.65,0-1,.82-1.19-.23-.42-.36-1.09-.82-1,.24.29.12.57-.08.84C11.43,259.44,11.15,258.62,10.57,259.49Z"/><path class="cls-2" d="M29.25,285.86s-.57,1.26-.69,1.07C29.26,288.11,29.9,285.91,29.25,285.86Z"/><path class="cls-2" d="M33,282.65a1.93,1.93,0,0,1-1.07-.69c.2,1.33,1.07,2.46.87,3.13C34,284.39,32.16,284.05,33,282.65Z"/><path class="cls-2" d="M31.4,287.24c.19-1.81-1-2.06-1.85-2.55-.69,1.07.69.91,1.36,1.18A1.11,1.11,0,0,0,31.4,287.24Z"/><path class="cls-2" d="M28.77,284.49c-.51.81-1.71.48-2.06,1.56,1.06.3.95-.45,1.56.39C28,285.35,29.63,284.77,28.77,284.49Z"/><path class="cls-2" d="M29.34,288.79c-.44-2.25-1.35,1.09,0,0Z"/><path class="cls-2" d="M25.17,224.92a1,1,0,0,0-.47,0l-.27.81A3.14,3.14,0,0,0,25.17,224.92Z"/><path class="cls-2" d="M26.31,287.61c-.58,1.6-1.73,1.8-.89,3.52C25.25,289.49,27.16,288.54,26.31,287.61Z"/><path class="cls-2" d="M36.4,283.93c-1.15.1-.3-2.64-1.76-1.28.72.13.82.62.49,1.37C35.6,284.08,36.22,284.37,36.4,283.93Z"/><path class="cls-2" d="M42.61,269.28c-.14-.87-2-.6-.88.2.08-.24.18-.45.49-.29C42.17,269.4,42.43,269.71,42.61,269.28Z"/><path class="cls-2" d="M37.3,278.75c0,.45.4,1.1.68.59-.53-.23-.5-.81-1-1.08-.42.74-1.38.47-.79,1.47-.33,0-.78-.19-.88.19,1-.31,1.21,1.38,1.56.39C36.19,280.43,36.73,278.31,37.3,278.75Z"/><path class="cls-2" d="M11.11,272.1a2,2,0,0,0,.29,2.16C11.9,274,12.27,272.33,11.11,272.1Z"/><path class="cls-2" d="M22.57,295.81c-.05-1.25,2.16-1.5,1.37-2.15-.36.31-1.73-.64-2.25.68.45.18,1.13.22,1.07.69C21.55,294.42,22,295.65,22.57,295.81Z"/><path class="cls-2" d="M17.06,253.57c-.18.84,1.43,1.82,1.94.57-.72-.28-1,.22-1.66,0,0-.71.83-.85.3-1.17a.93.93,0,0,0-.26.15,1.27,1.27,0,0,0-.16-.87c-1.11.14-.41,1.06-.67,1.57A1.86,1.86,0,0,0,17.06,253.57Z"/><path class="cls-2" d="M7.68,293.43c-.89,0-2.2,1.25-.83,1.19C6.61,294,7.81,294,7.68,293.43Z"/><path class="cls-2" d="M2.2,285.19c.19,1.08,2.31,1.29,1.43,2.47-1-.47-.88-.05-.45-1.12-1-.32-.46.23-1.5.6.42,1.43,1.82.59,2.85.6-.9-1,.22-1.15.14-1.8C3.37,286.82,3.51,284.31,2.2,285.19Z"/><path class="cls-2" d="M.34,292.46c.14.4.56.88.52.22-.28-1.24-2.31.2-.75.3C0,292.75,0,292.52.34,292.46Z"/><path class="cls-2" d="M1.76,292.76c.86.64-.4,1.79.6,1.49-.19-.8.35-1.29.52-1.94Z"/><path class="cls-2" d="M9.23,276.73c-.76,2,1.86.53,0,0Z"/><path class="cls-2" d="M22.51,284.56c-.92-.55-1.65-1-2.44-.2,2.42.45-.09,1.39-.5,1.95.51.14.18.78.58,1,.14-1.43,1.07-1.55,1.77-2C21.27,284.88,22.2,284.87,22.51,284.56Z"/><path class="cls-2" d="M8,279c1.22-.35,1.31-2.53,0-2.17,0,.33.29.75-.07.9s-.57-.12-.9-.07c.18.78.8.54,1.2.82C8,278.56,7.77,278.68,8,279Z"/><path class="cls-2" d="M3.62,281.15c-2.57.53-.36,1.47,0,0Z"/><path class="cls-2" d="M3.84,276.28c-.69.41-.94-.2-1.42-.3C1.58,277,3.87,277.48,3.84,276.28Z"/><path class="cls-2" d="M19.77,283.87c-1,.25-.86-1.09-1-1.38a.72.72,0,0,0,.37-.61C18,282.67,18,280.75,17,281a1.88,1.88,0,0,0,1.51,1.56.58.58,0,0,0-.12.14c-.05.58.47.82.48,1.37C19.22,284.05,19.67,284.25,19.77,283.87Z"/><path class="cls-2" d="M3.09,274.41c.94-.5.88,1.34,2,.52l-.45-1.12C3.94,274.67,2.79,273.41,3.09,274.41Z"/><path class="cls-2" d="M19.18,284.55c-.23-.08-.44-.17-.29-.49C17.81,283.57,19.11,285.74,19.18,284.55Z"/><path class="cls-2" d="M12.16,282.94l-1.12.45c0,.32.28.74-.08.9-.15-.38-.84-.21-.75.3.64,0,1.17.17,1.8.15-.07-.6.2-.82-.45-1.13C11.82,283.41,12.3,283.31,12.16,282.94Z"/><path class="cls-2" d="M15.62,270.75l-.79-.2c-.17,0-.33,0-.41.08a.75.75,0,0,0-.7-.05c.32,1.58,1,.79.85.28,1.1.1,0,1.37-.1,1.61v0c-.23,0-1.38-.25-1.52.27a2,2,0,0,0-.27-.22c.07.62-1,1.9-.11,2.05.19-1.25.88,1.28,1.27-.09-.66,0-.92-.79-.19-.88-.06.22.2.52.39.1a6.47,6.47,0,0,1-.87-.77c.58-.24,1.45.6,1.31-.41a2.22,2.22,0,0,0,.35-.29C15.43,272.29,15.43,271.36,15.62,270.75Z"/><path class="cls-2" d="M10.5,268c-.46.42-2.11.33-1.72,1.12C9.24,268.67,10.89,268.75,10.5,268Z"/><path class="cls-2" d="M6.17,281c3.23,1.44-.64-1,0,0Z"/><path class="cls-2" d="M5.78,268.12c-.82.46-.85-.91-1.57-.67C4.32,268.25,6,269,5.78,268.12Z"/><path class="cls-2" d="M11.84,262.65c-.55.08-.93-.25-1.65.22-.39,1.56.47,1.71-.07,3.07,1.34-.15,0-1.44,1.05-1.72.15.38.48.32.67.6-.51.25-.44,1.07-.16,1.69-.67.54-1.27,1.05-.85,1.78a8.76,8.76,0,0,1,1.22-1.22c.31.29.68.26.92-.53a1.37,1.37,0,0,1-.41,0,1.84,1.84,0,0,0,.34-1.44,2.39,2.39,0,0,1-.84,1.13,1.7,1.7,0,0,1-.29-.48c.4-.21.8.31.75-.3-.37-.32-.82-2.29-2.18-2.17C10.9,262.61,12,263.87,11.84,262.65Z"/><path class="cls-2" d="M5.57,277.33c.6,2.39,1.81-.44,0,0Z"/><path class="cls-2" d="M7.14,282.34c-.92.24-1.93-.15-1.72,1.13C6.52,282.81,7.3,283.74,7.14,282.34Z"/><path class="cls-2" d="M21,236.81c.92.78,1.29-1.81.67-1.58C22.16,236.05,20.78,236.08,21,236.81Z"/><path class="cls-2" d="M5.05,283.62c-.54.29-1.44.42-1.35,1C4.23,284.31,5.14,284.17,5.05,283.62Z"/><path class="cls-2" d="M8.33,268c.53-1.26-1.62-.48-1.28.07C7,268,8.41,267.77,8.33,268Z"/><path class="cls-2" d="M6.51,273.85c.06-.41,1.89-.37.69-1.08C7.26,273.39,5.43,273.34,6.51,273.85Z"/><path class="cls-2" d="M6.16,276.65l-.45-1.12c-.41.24-1.08.36-1,.83C5.31,276.23,5.62,276.72,6.16,276.65Z"/><path class="cls-2" d="M28.42,218.67c-.11.56-1.25.16-.59.69C28.65,219.93,29.23,217.6,28.42,218.67Z"/><path class="cls-2" d="M39.8,209.91c-.24-.08-.45-.17-.29-.49-.33,0-.78-.18-.89.2.24.08.45.17.3.49C36.22,209.52,39.37,211.12,39.8,209.91Z"/><path class="cls-2" d="M39.92,230.74c.65.27,2.5-.14,1.47-.87C41.16,230.6,40,229.81,39.92,230.74Z"/><path class="cls-2" d="M41.12,248.94c-.64-.17.06-1.14-.48-1.37-.1.76-.66.75-.79,1.46l.78.2C40.88,249.27,41.11,249.29,41.12,248.94Z"/><path class="cls-2" d="M39.38,244.34c.61.19,0,1.07,1,1.07C40.9,244.7,39.44,243.61,39.38,244.34Z"/><path class="cls-2" d="M41.86,208.36c-.34,1.48-1.07,1.62-.6,2.34C41.7,209.92,43.15,208.91,41.86,208.36Z"/><path class="cls-2" d="M23.42,232.65c.07.16.21.28.55.28.55-.71-.57-2-1-1.07.27.08.31.29.35.51C21.36,232.85,22.86,233.58,23.42,232.65Z"/><path class="cls-2" d="M24.39,231.11c.26-.2.73-.3.6-.67-.24.07-.47.12-.53-.22.21-.09.31-.48-.15-.38.2.5-.52.61-.45,1C24.1,230.82,24.33,230.77,24.39,231.11Z"/><path class="cls-2" d="M28.75,226.86c.07.42-.54.54-.47,1,.71.65,1.42-.75.75-1a.69.69,0,0,0,.34-.41c-1.28-.12-1.39-.94-2.15-1.37A2.27,2.27,0,0,0,28.75,226.86Z"/><path class="cls-2" d="M26,223.46c-.85.8,1,1.48,1.07.68-.23-.08-.45-.17-.29-.49Z"/><path class="cls-2" d="M30,278.14c-.06-.62,1-1.91.11-2.06C30.14,276.71,29.1,278,30,278.14Z"/><path class="cls-2" d="M27.17,267.86c.07-.8.72-.64,1.08-1a.57.57,0,0,0-.42-.48c.06-.26,0-.48-.34-.48.1.7-.51.11-1.12.45.11.52.3.76.51.82A.63.63,0,0,0,27.17,267.86Z"/><path class="cls-2" d="M30.34,283.22l-1.17-.29C28.3,283.92,30.62,284.51,30.34,283.22Z"/><path class="cls-2" d="M23.87,285.74c-.24.57-1,2.49-.79,3.13C24.23,288.42,24.37,286.88,23.87,285.74Z"/><path class="cls-2" d="M22.68,292.1c.45.17.71.92,1.17.29C23.4,292.22,23.14,291.47,22.68,292.1Z"/><path class="cls-2" d="M29.14,267.87c1.46.84,1.88,1.31,2.92,1.87C31.57,268,30.3,268.06,29.14,267.87Z"/><path class="cls-2" d="M29.12,268.36c-.14,1.05-1.59-.08-1.57,1.26l1.17.3C28.41,268.89,30.1,268.71,29.12,268.36Z"/><path class="cls-2" d="M39.75,223.21c-.11.93-1.24.15-1.47.88C39.26,224.91,40.81,224,39.75,223.21Z"/><path class="cls-2" d="M33.14,265.63c-.73.8-.56,1.24-.28,1.3a.28.28,0,0,0,0,.34s1.36-.28,1.27-.08c.31-.71-.26-.77-.74-.58A1.28,1.28,0,0,0,33.14,265.63Z"/><path class="cls-2" d="M23.69,281.54c-.76-.1-.75-.66-1.46-.79C21.33,281.68,23.64,282.26,23.69,281.54Z"/><path class="cls-2" d="M31.15,252.3c-.43-.94-1.21-1-1.88-1.42C30.39,251.69,30,252.55,31.15,252.3Z"/><path class="cls-2" d="M45.44,271.25c-.31.78-1.75-.35-1.86.78C44.19,272.06,46.53,272.24,45.44,271.25Z"/><path class="cls-2" d="M44.27,269.29c.65.17-.05,1.14.49,1.37.37-1.23,1.32-1.49,1.57-2.93C45,267.2,45.41,269.53,44.27,269.29Z"/><path class="cls-2" d="M46.83,265.78q-1.24-.43-1.47.87Q46.61,267.09,46.83,265.78Z"/><path class="cls-2" d="M48.75,250c-2.4.06-1.4,1.73,0,0Z"/><path class="cls-2" d="M47.6,215.22a1.11,1.11,0,0,0-1.37.49A1.11,1.11,0,0,0,47.6,215.22Z"/><path class="cls-2" d="M45.06,213.75c-2.06,0-1.07,1.69,0,0Z"/><path class="cls-2" d="M60.18,226.32c-1.21-1.46-2.09,1,0,0Z"/><path class="cls-2" d="M43.67,275c1-.43-.38-1.39-1-1.08C43.23,274.12,43.19,274.69,43.67,275Z"/><path class="cls-2" d="M49.31,235.21c-.23.53-.81.5-1.08,1l1.18.3C49.46,236,49.76,235.39,49.31,235.21Z"/><path class="cls-2" d="M42.75,204.84a1.77,1.77,0,0,0,1.76-.39C43.8,204.37,42.65,203.56,42.75,204.84Z"/><path class="cls-2" d="M62.05,222.22c.67,1,1.62,1.32,2.12,3l0-.12C64.22,223.75,62.85,221.87,62.05,222.22Z"/><path class="cls-2" d="M62.13,226.82c-.43-2.25-1.35,1.08,0,0Z"/><path class="cls-2" d="M56.13,209.48c.72.09,1.86.89,1.76-.38-.71-.09-1.94-2-1.46-.79a1.19,1.19,0,0,1,.58,1C56.69,209.3,56.24,209.11,56.13,209.48Z"/><path class="cls-2" d="M44.53,225.68a1.11,1.11,0,0,0,1.37-.49A1.11,1.11,0,0,0,44.53,225.68Z"/><path class="cls-2" d="M59.18,231.89c0-.33.18-.77-.19-.88-.34.86-.28,1.49.38,1.76.71-.67,2.3.15,2.74-1A24.6,24.6,0,0,1,59.18,231.89Z"/><path class="cls-2" d="M61.93,229.26c-1.14,0,.74-1.77-.39-1.76-.1.76-.66.75-.79,1.46C61.46,229,61.61,229.8,61.93,229.26Z"/><path class="cls-2" d="M58.74,241.21c.09,2.83,1.53-.86,0,0Z"/><path class="cls-2" d="M63.77,207.26c.87-.56,1.07.84,1.76-.38-.82.19-1-1.5-1.57-.4.24.08.45.18.3.49C63.5,206.56,63,208.28,63.77,207.26Z"/><path class="cls-2" d="M60.05,233.36c.47.17.9.35.59,1a2.14,2.14,0,0,0,1.13,0l.21-.75C61.46,234,60.81,232.64,60.05,233.36Z"/><path class="cls-2" d="M59.45,236.81c1.7-2-.71-1.27,0,0Z"/><path class="cls-2" d="M46,206.9c-1-1.52-1.55,1.15,0,0Z"/><path class="cls-2" d="M40.05,274.46c.06-.41,1.89-.36.69-1.08C40.81,274,39,274,40.05,274.46Z"/><path class="cls-2" d="M41.89,254.12c-.73-.23,0-1.36-.88-1.47.27,1.11-1.85.84-.79,1.47C40.57,252.92,42.76,255.54,41.89,254.12Z"/><path class="cls-2" d="M48.4,210.43c-1-1.55-1.33,1-2.06,1.56,1.46.32,1.13-.32,1.18-1.36C47.85,210.62,48.29,210.81,48.4,210.43Z"/><path class="cls-2" d="M43.56,250.8a1.87,1.87,0,0,1-1.07-.68c.22,1.8-3.42,2-2.16,1.94C41.51,251.83,42.92,252,43.56,250.8Z"/><path class="cls-2" d="M40.34,266.58Z"/><path class="cls-2" d="M45.65,213.06c.31.38,1.83,2.42,1.37,1.18-.65-.17,0-1.14-.49-1.37C46.25,213.58,46,212.49,45.65,213.06Z"/><path class="cls-2" d="M40.07,264.79a1.11,1.11,0,0,0-1.2-.82A1.11,1.11,0,0,0,40.07,264.79Z"/><path class="cls-2" d="M39.92,266.59h-.31l.73,0Z"/><path class="cls-2" d="M39,254.21c-.28.18-1.38,1.62-.49,2C38.74,256,39.84,254.54,39,254.21Z"/><path class="cls-2" d="M39.61,266.6Z"/><path class="cls-2" d="M45.58,259.22c0,.83-2.38.35-1.18,1.37.19-.44.73-.27,1.28-.1C45.73,260,46,259.4,45.58,259.22Z"/><path class="cls-2" d="M43.45,226.65c2.78,1,1.81-1.44,0,0Z"/><path class="cls-2" d="M44.61,230.27c1.56-1.59-1-1.27,0,0Z"/><path class="cls-2" d="M45.09,240.38c1.16-.45-.39-2.6-1-1.08C44.91,239.38,44.76,240,45.09,240.38Z"/><path class="cls-2" d="M44.81,255.7c.5-1.18-.7-1.35-1.16-2C43.15,254.92,44.35,255.09,44.81,255.7Z"/><path class="cls-2" d="M44.88,263.62c-1.73.91.55-1.26-.87-1.47a2.28,2.28,0,0,1-.79,1.46c.28.17.77.21.68.59C44.59,264.85,45.92,264.06,44.88,263.62Z"/><path class="cls-2" d="M46.56,239.5a1.12,1.12,0,0,0-.48-1.37A1.1,1.1,0,0,0,46.56,239.5Z"/><path class="cls-2" d="M43.7,265c.07-.27.14-.53.2-.79C43.51,264.11,43.24,264.76,43.7,265Z"/><path class="cls-2" d="M45.23,222.94c-.74-.31-.91.33-1.37.48s-.78-.18-.89.2A1.46,1.46,0,0,0,45.23,222.94Z"/><path class="cls-2" d="M43.22,209.53c.16-.28.44-.37.88-.19l.2-.78c-.71,0-.85-.83-1.17-.3C44.5,208.66,42,209.34,43.22,209.53Z"/><path class="cls-2" d="M54.34,218.18c.23-.69-.16-1-1-1.08C52.75,219.44,53.79,216.89,54.34,218.18Z"/><path class="cls-2" d="M62.37,214.4c-.64-.17.06-1.14-.48-1.37-.08.79-.73.64-1.08,1C61.63,213.81,61.82,215.5,62.37,214.4Z"/><path class="cls-2" d="M51.05,262.27a.33.33,0,0,1,.29.15l.24-.48C51.46,261.81,51.31,261.84,51.05,262.27Z"/><path class="cls-2" d="M28.34,214.08c.49.07.95.11,1-.59-.84-.46-.95.32-1.28.72,0,.08-.05.17-.08.26C28.55,215,28.56,214.94,28.34,214.08Z"/><path class="cls-2" d="M59.91,219.18c1,.54,1-.62,1.47-.88C60.54,218,60.05,218.31,59.91,219.18Z"/><path class="cls-2" d="M36,210.19c-.2.45-.49.13-.78-.2C34.17,211.47,37.48,211,36,210.19Z"/><path class="cls-2" d="M59.43,240.14a3.91,3.91,0,0,0,.55.27c.05-.17.11-.34.16-.51A1.91,1.91,0,0,0,59.43,240.14Z"/><path class="cls-2" d="M49.67,210.34c1.06.66,2.48.91,1.77-.38C51.44,211.09,49.66,209.21,49.67,210.34Z"/><path class="cls-2" d="M52.4,212.7c-.28.18-1.38,1.62-.49,2,.13-.51.77-.18,1-.58C52.24,213.9,52.94,212.93,52.4,212.7Z"/><path class="cls-2" d="M49.27,213.57c-.17.65-.33,1.3-.5,2,.48.06,1.1.35,1.28-.09C48.49,215.21,50.55,214.31,49.27,213.57Z"/><path class="cls-2" d="M50.17,262.47c-.77-.32-.5-1.26-1.27-1.57C48.76,261.57,49.55,263.33,50.17,262.47Z"/><path class="cls-2" d="M52.61,210.25q1.24.44,1.47-.87C53.09,208.84,53.12,210,52.61,210.25Z"/><path class="cls-2" d="M25.71,297.11l1.45-1.38C26.47,295.54,25.83,296.4,25.71,297.11Z"/><path class="cls-2" d="M27.85,294.66c-.4.33-.5.63-.46.85L28,295A2.24,2.24,0,0,0,27.85,294.66Z"/><path class="cls-2" d="M48.69,266.67c-1.68.32-.27.91.13.63a1.09,1.09,0,0,1,.08-.15A.72.72,0,0,0,48.69,266.67Z"/><path class="cls-2" d="M26.75,222a2.33,2.33,0,0,0-1-.19c-.1.33-.21.65-.32,1C25.85,222.93,26.35,222.43,26.75,222Z"/><path class="cls-2" d="M19.62,302.46l.91-.75C20.51,301.24,19.84,301.06,19.62,302.46Z"/><path class="cls-2" d="M17.19,244.42,17,245C17.93,244.54,17.82,244.45,17.19,244.42Z"/><path class="cls-2" d="M22.2,235c-.53.06-.7-.33-.78-.78l-.3.79C21.73,235.28,22.32,235.37,22.2,235Z"/><path class="cls-2" d="M11.09,256.33l-.43.71C11.11,256.87,11.2,256.6,11.09,256.33Z"/><path class="cls-2" d="M49.71,233.65c.45.17.71.92,1.17.29C50.44,233.77,50.17,233,49.71,233.65Z"/><path class="cls-2" d="M57.4,211.05c-.54-.16-1.52-.29-.89.2C57.47,212,58.25,210,57.4,211.05Z"/><path class="cls-2" d="M58.36,239.45c-.43-2.25-1.35,1.09,0,0Z"/><path class="cls-2" d="M55.53,213.49s1.4-1.57.3-1.17C55.12,212.57,55,213.62,55.53,213.49Z"/><path class="cls-2" d="M54.22,223.56c-.08.6-.5,1.41,0,1.66.08-.8.73-.64,1.08-1A1.88,1.88,0,0,1,54.22,223.56Z"/><path class="cls-2" d="M53.15,222.87c-.74,1.43-.49-2-1.08-.69.46.94-.16.49-.39,1.57C52.65,224.56,54.21,223.64,53.15,222.87Z"/><path class="cls-2" d="M58.26,215.85c.3-1.06-.45-.95.4-1.56C57.23,213.62,57.84,215.61,58.26,215.85Z"/><path class="cls-2" d="M59,222.7c-.4,1.12-.91,1.31-.5,2C59.12,224.18,60.31,223.35,59,222.7Z"/><path class="cls-2" d="M51.76,233.75c.71-.09-2.06,2.54,0,1.66C50.83,235.13,53.94,233.07,51.76,233.75Z"/><path class="cls-2" d="M54.24,246.44c1.54.07.37-1.36,1.27-1.75C54.54,244.27,54,247.53,54.24,246.44Z"/><path class="cls-2" d="M53.89,206.84c.08-.24.18-.45.49-.3-.06.22.2.53.39.1C54.62,205.77,52.81,206,53.89,206.84Z"/><path class="cls-2" d="M56.81,235.73c-1.17-.67-.86,1.15-1.86.77,0-.21-.21-.52-.39-.1,1,.09-.67,1.73.87,1.47C55.56,236.6,56.38,236.49,56.81,235.73Z"/><path class="cls-2" d="M53.55,219.65c-.31.77-1.55,0-1.86.77C52.54,220.86,54.54,220.47,53.55,219.65Z"/><path class="cls-2" d="M53.51,231.28c-1-1.52-1.55,1.15,0,0Z"/><path class="cls-2" d="M38.27,264.64c.3,1-.85-.25-1.49.6C36.73,267,40.23,264.6,38.27,264.64Z"/><path class="cls-2" d="M52.33,258.86c-2.28-.92-.71,1.72,0,0Z"/><path class="cls-2" d="M53.73,251.72c-.53-.35-.84-.83-1.37-1.18C51.85,251.34,53.39,252.52,53.73,251.72Z"/><path class="cls-2" d="M51.58,224.14c-.61-.2,0-1.08-1-1.08C50.06,223.77,51.17,225.07,51.58,224.14Z"/><path class="cls-2" d="M52.19,218.47a1.8,1.8,0,0,0-.39-1.77c-.23.54-.81.5-1.08,1A2.23,2.23,0,0,1,52.19,218.47Z"/><path class="cls-2" d="M60.39,222.21c-1-1.52-1.56,1.15,0,0Z"/><path class="cls-2" d="M51.56,236.2c-.2.45-.49.13-.78-.2C49.75,237.48,53.06,237,51.56,236.2Z"/><path class="cls-2" d="M20.7,298.25c.13-.52.77-.18,1-.58C21,297,19.66,297.81,20.7,298.25Z"/><path class="cls-2" d="M36.08,236c.09-.23.18-.45.49-.29,0,.22.21.52.39.1C36.82,235,35,235.21,36.08,236Z"/><path class="cls-2" d="M36.89,257.43c1.11-.36.81,1.62.09,1.27,0-.24.06-.48-.29-.49-.9.93,1.41,1.51,1.46.79-.58-.26,0-.93.3-1.17C38,257.59,36.06,256.41,36.89,257.43Z"/><path class="cls-2" d="M36.83,218.31c1.09-2.59-1.22-1.68,0,0Z"/><path class="cls-2" d="M35.19,211.66c-.08,1-1.72-.67-1.47.87C34.68,213.31,35.93,211.88,35.19,211.66Z"/><path class="cls-2" d="M35,225.74c0,2.07,1.69,1.08,0,0Z"/><path class="cls-2" d="M37,247.06c.8.08.64.73,1,1.08.09-.39.43-.38.58-.68-.79-.08-.64-.72-1-1.08C37.51,246.77,37.18,246.77,37,247.06Z"/><path class="cls-2" d="M38.35,232c-1.52,1,1.14,1.55,0,0Z"/><path class="cls-2" d="M38.08,251.08c1.36,1.08-2.34,1.16-1,2.24C37.78,253.16,39.91,250.39,38.08,251.08Z"/><path class="cls-2" d="M35,217.43c-2,.88-.51,2.84,0,0Z"/><path class="cls-2" d="M36.84,270.73a1.77,1.77,0,0,0,.38,1.76C37.56,271.63,37.5,271,36.84,270.73Z"/><path class="cls-2" d="M35.8,233.86c-.35.53-.83.84-1.18,1.36C35.48,235.84,36.36,233.8,35.8,233.86Z"/><path class="cls-2" d="M29,231.86a2.26,2.26,0,0,1,.23,1.65C30.54,233.69,29.64,231.47,29,231.86Z"/><path class="cls-2" d="M25.84,228.83c.52.14.18.78.58,1,.14-.51.78-.18,1-.58C27.19,229.06,26.15,227.88,25.84,228.83Z"/><path class="cls-2" d="M26.34,231.64c1.62-.47-.63-1.06-1-1.35C25.56,231,26.11,231,26.34,231.64Z"/><path class="cls-2" d="M29.48,224.35c.7,1.18,1.33-1,.68-1.07C30.19,223.28,29.59,224.54,29.48,224.35Z"/><path class="cls-2" d="M30.39,215.84c1.59-2.08-1.46-1.6,0,0Z"/><path class="cls-2" d="M30.51,236.68c.16.27.32.36.47.33a1,1,0,0,1-.24.33,1.32,1.32,0,0,1-.82,0c-.56,1,.57,1,.38,1.76-.82-.57-1.4,1.76-.59.68.84-.61,1.45-1.09.5-2a1,1,0,0,0,.34,0,.64.64,0,0,0,.14.31,8.14,8.14,0,0,0,.78-.4h0c0,.33-.18.78.19.89a1.73,1.73,0,0,0,0-1.09.35.35,0,0,0,0-.23.53.53,0,0,1-.16,0l-.17-.05c-.1-.11,0-.36-.08-.49.26-.39.33-1.17-.05-1.2C31.22,235.6,30.62,236.86,30.51,236.68Z"/><path class="cls-2" d="M32.75,211.45c-.32.77-1.05.84-1.57,1.27.86.33,1.49.28,1.76-.39C32,212.47,34,210.49,32.75,211.45Z"/><path class="cls-2" d="M29.78,233.73c.38,1,.93.5.6,1.5C31.92,234.93,30.26,233.68,29.78,233.73Z"/><path class="cls-2" d="M33,225.24c.61-.1.44-1.49,1.18-1.36,0,.49,1.79.93.78.2-.23-.09-.44-.18-.29-.49C33.7,223.14,32.1,224.41,33,225.24Z"/><path class="cls-2" d="M34.45,260.53c.32-2.21-1.59-.41,0,0Z"/><path class="cls-2" d="M25.31,268.63c-2.29-.91-.72,1.73,0,0Z"/><path class="cls-2" d="M19.58,289.52c.46-.42,1.5,1.09,1.27-.08C20.49,289.64,19.45,288.13,19.58,289.52Z"/><path class="cls-2" d="M24,278.7c.17-.21,1.35-1.26.39-1.56C24.58,278,22.89,278.15,24,278.7Z"/><path class="cls-2" d="M28.39,268.17c-.79-.06-1.66-.79-1.49.6C27.45,268.14,28.6,269.39,28.39,268.17Z"/><path class="cls-2" d="M26.58,268.54c-.24.54-.81.5-1.08,1l1.17.29C26.73,269.34,27,268.72,26.58,268.54Z"/><path class="cls-2" d="M26,279.2c-2.16-1-.59,1.65,0,0Z"/><path class="cls-2" d="M16.57,273.35c-.77.35-1.72-.21-2,.38a4.32,4.32,0,0,0,2.62,1.12Z"/><path class="cls-2" d="M16.7,269.78c0,.32-.19.77.19.88l.3-1.17a3.74,3.74,0,0,1-.6-.31c.5-.05,1.49.6.95,1.17.26,0,1.62.31,1.51-.46.23,0,.48-.12.68-.59-1.37-.55-1.35.17-1,.47-.79,0-1.26-.68-1.83-1.15a.42.42,0,0,0-.23-.51c-.06.09-.13.17-.19.25a1.09,1.09,0,0,0-.25-.1.33.33,0,0,1,.06.32,7.77,7.77,0,0,0-.8.9C16,269.77,16.06,270.12,16.7,269.78Z"/><path class="cls-2" d="M19.05,293.26c-1.53.68-2.16.74-3.23,1.26C17.52,295.14,18.22,294.09,19.05,293.26Z"/><path class="cls-2" d="M16.87,276.27c-.62.24-.63-.95-1.2-.82C15.66,276.34,16.93,277.64,16.87,276.27Z"/><path class="cls-2" d="M37,247.35c-.38-.1-1.18-.36-2-.51.24-.76-.59-2.11-.91-1.35.24.08.45.18.3.49-.14.51-.78.18-1,.58l.19.2a.82.82,0,0,0-.8,1C34.72,245.9,36.12,249.08,37,247.35Z"/><path class="cls-2" d="M36.1,262.47c.33,1-.24,1.46,1,1.35C37.36,263.13,37,262.23,36.1,262.47Z"/><path class="cls-2" d="M35.26,248.47c-.15-1.34-1.43,0-1.94-.52C33.46,249.29,34.75,248,35.26,248.47Z"/><path class="cls-2" d="M38.35,261.57a1.12,1.12,0,0,0-1.2-.82A1.1,1.1,0,0,0,38.35,261.57Z"/><path class="cls-2" d="M34.14,248.92s.16.34.15.38C33.33,252,35.81,247.89,34.14,248.92Z"/><path class="cls-2" d="M32.59,267.79c-.32-.11-1.74-1.06-1.65.23C31.41,267.77,32.84,268.72,32.59,267.79Z"/><path class="cls-2" d="M32.62,274.24c.11-.94,1.24-.15,1.47-.88C33.37,273,31.82,273.9,32.62,274.24Z"/><path class="cls-2" d="M31.93,275.31s-.58,1.26-.69,1.07C31.94,277.56,32.58,275.36,31.93,275.31Z"/><path class="cls-2" d="M34.23,261.33c-.88-.35-1.47-1.26-2-.1C33.3,262.23,33,262.16,34.23,261.33Z"/><path class="cls-2" d="M25.72,235.88c.84-.75-.88-2.18-.28-3.82,1-.31,1.21,1.38,1.56.4-.35-.57-1.27-.8-2.24-1C25.05,233,25,234.63,25.72,235.88Z"/><path class="cls-2" d="M38.68,220.86a1.11,1.11,0,0,0-.48-1.37A1.11,1.11,0,0,0,38.68,220.86Z"/><path class="cls-2" d="M24.05,290c-.08.23-.17.45-.49.29-.06.26-.13.52-.19.78C24.17,291.87,24.85,290,24.05,290Z"/><path class="cls-2" d="M16,264.44c1.27-.07.32-1.1.14-1.8a1.1,1.1,0,0,0,.83-1.19C15.43,262.36,15.94,263.48,16,264.44Z"/><path class="cls-2" d="M21.6,293.07c-.63-.33.21-.48.3-1.17C19.89,291,20.94,294,21.6,293.07Z"/><path class="cls-2" d="M24.33,295.43c-.72-.55-2,.56-1.08,1C23.44,295.79,24.32,296.35,24.33,295.43Z"/><path class="cls-2" d="M22.76,296.69c-.08.24-.18.45-.49.29l-.2.79C22.88,298.62,23.56,296.73,22.76,296.69Z"/><path class="cls-2" d="M16.68,301c-1.41-1.08-1.51,3.17-.4,1.57C15.3,302.19,17,302,16.68,301Z"/><path class="cls-2" d="M19.65,290.91c.19.82-1.5,1-.4,1.56C19.77,291.87,20.87,291.6,19.65,290.91Z"/><path class="cls-2" d="M17.38,296.57s-.58,1.27-.69,1.08C17.39,298.82,18,296.62,17.38,296.57Z"/><path class="cls-2" d="M17.88,294.62c-.08.53-1.69,1.12-.79,1.46C17.37,295.89,19,295.31,17.88,294.62Z"/><path class="cls-2" d="M19.32,302.06c-1-.3-1-1.06-1.67,0C18,302.69,19,302.94,19.32,302.06Z"/><path class="cls-2" d="M20.12,297.27c1.77-1.23-1-1.24,0,0Z"/><path class="cls-2" d="M34.49,270.13c1.71-2-.7-1.27,0,0Z"/><path class="cls-2" d="M34.81,262.31c-.53,1,.62,1,.88,1.47-.39-.89-.24-1.3,0-1.56a3.12,3.12,0,0,0,.63-.27,1,1,0,0,0-.17-.12c.2-.18.26-.39-.16-.88-1.49,1.44-4.59,2.49-2.36,4.39C34.1,264.47,33.86,262.38,34.81,262.31Z"/><path class="cls-2" d="M35.27,272c1.56-1.6-1-1.28,0,0Z"/><path class="cls-2" d="M34.87,273.56c.14-.52.78-.18,1-.58C35.16,272.32,33.83,273.12,34.87,273.56Z"/><path class="cls-2" d="M31.61,283.13c-.08.8-.73.64-1.08,1C31.45,285,32.54,283.54,31.61,283.13Z"/><path class="cls-2" d="M26.12,286.73s-.37-.07-.39-.1C24.08,284.24,26,288.69,26.12,286.73Z"/><path class="cls-2" d="M26.84,275.68c-.44-.17-.71-.92-1.17-.3C26.12,275.56,26.38,276.3,26.84,275.68Z"/><path class="cls-2" d="M25.26,281.93c.81.39-1.18,1.54-1.37.49-.18.21-1.36,1.26-.4,1.56.5-1.2,2-.67,2.84-1.36C25.71,282.69,25.76,280.86,25.26,281.93Z"/><path class="cls-2" d="M34.26,280.89c-1-1.23-1.66-.63-2.44-1.87-.66,1.17,1.15.87.78,1.87-.4-.11-.55.19-.89.19.22-1.21-3.38-1.86-2.05-.11a1.1,1.1,0,0,1,1.37-.48c-.07.45-.72.46-.2.78.47-.11,2.33.68,3-.48.19.82-1.51,1-.4,1.57C33.73,281.86,34.22,281.75,34.26,280.89Z"/><path class="cls-2" d="M13.52,256.07c.76.32.84,1.05,1.26,1.57l.3-1.17C14.05,256.78,13.87,255.09,13.52,256.07Z"/><path class="cls-2" d="M12.32,262.43a1.52,1.52,0,0,1,.63.27,1.47,1.47,0,0,1-.59.17,1.84,1.84,0,0,1,.08,1.27A6,6,0,0,0,13.3,263a.76.76,0,0,1,.09.09,4.7,4.7,0,0,0,.16-.49c.13-.21.26-.4.38-.57h.15c.25,0,.48.06.49-.29l-.24-.08c.05,0,.09-.06.13-.07a1,1,0,0,0-.5-.12,2.64,2.64,0,0,1-.46-.42C13.64,262.4,12.65,261.86,12.32,262.43Z"/><path class="cls-2" d="M13.48,258.08c1.47-2-.42-2.77,0,0Z"/><path class="cls-2" d="M8.1,262c.2.25.3.73.67.6-.86-.65.4-1.8-.6-1.5.24.24-.09.54-.5.73-.13.19-.27.38-.4.58C7.59,262.53,7.82,262.61,8.1,262Z"/><path class="cls-2" d="M3.93,267l-.22.27A.27.27,0,0,0,3.93,267Z"/><path class="cls-2" d="M2.58,289.39c-.25.2-.73.3-.6.67a1,1,0,0,0,.68-1.57c-.59.4-1.19-.17-1.13.45A1.19,1.19,0,0,1,2.58,289.39Z"/><path class="cls-2" d="M16.48,303.42a1.12,1.12,0,0,0-1.38.48A1.13,1.13,0,0,0,16.48,303.42Z"/><path class="cls-2" d="M16.84,248c.57-.12.88.37,1.43.3l-.45-1.12C17.4,247.45,16.73,247.58,16.84,248Z"/><path class="cls-2" d="M16.48,254.71h0a.25.25,0,0,0-.29,0c-.3,0-.53-.22-1,0-.08.45.16.64.46.66-.22,0-.32.13,0,.35.83.36,1.08-.77.81-1Zm-.32.79a1.8,1.8,0,0,0-.32-.06,1,1,0,0,0,.37-.11A.77.77,0,0,1,16.16,255.5Z"/><path class="cls-2" d="M14.39,264.67l.45,1.12C16.15,265.9,15.26,263.68,14.39,264.67Z"/><path class="cls-2" d="M3.64,298.52c-.9.24-1.37.66-1.2,1.35C3.12,299.54,3.59,299.12,3.64,298.52Z"/><path class="cls-2" d="M21.1,240.25a.42.42,0,0,0-.29.2c.69.11.23.36-.09.64a3,3,0,0,1-.22-2.33c-.25,1.31-2,2.4-1.64,2.39.59-.07.81.2,1.12-.45a2.31,2.31,0,0,1,.52.66c0,.08,0,.17.12.25.3.78,0,1.47.41,1.71-.19-.74.7,0,.6-.67a10.09,10.09,0,0,1-.68-1.1l.15-.61c2-.41,1.18,2.58,2.54,1.48-.42-.19-.5-.59-.58-1,.67,1.17,1.2-.34,2.15-.29,0,.33-.18.78.19.89a1.87,1.87,0,0,0-.09-1.28c-1.19.51-2.32-1.14-1.76.39-1.33,0-1.4-.72-1.76-1.28-.09.35-.4.31-.67.37,1-.37.49-.91,1.48-.59a2,2,0,0,1-.08-1.27C21.28,238.67,21.18,239.46,21.1,240.25Z"/><path class="cls-2" d="M13.81,289.23c-1.61,0-2.64-.91-3.82.22C11.26,288.94,13.21,290.59,13.81,289.23Z"/><path class="cls-2" d="M13.9,302.49l-.39.57.23-.34Z"/><path class="cls-2" d="M6,287.14c.47-.43,2.11-.34,1.72-1.13-1.1.42-2.16.71-2.47-.74.7.28,1.23-.23,1.35-1-.82.84-2.49.17-2.25.9C5.15,285.32,5.42,286.62,6,287.14Z"/><path class="cls-2" d="M15.6,275.74c-1-.58-3,.13-2,1.16C13.69,275.5,15.24,276.63,15.6,275.74Z"/><path class="cls-2" d="M14.63,283.68c-.29-.52-1,0-1.65.23l.3.75c.12.22.24.42.53.22C12.59,283.34,16.34,284.08,14.63,283.68Z"/><path class="cls-2" d="M9.16,279.8c-.49.19-.6-.52-1.05-.45.13.57-.36.88-.3,1.42C8.35,280.48,9.25,280.35,9.16,279.8Z"/><path class="cls-2" d="M9.39,281.44c.61,2.39,1.81-.44,0,0Z"/><path class="cls-2" d="M8.12,290.21c-.46.11-1,.49-1.27.07-.11-.22-.23-.42-.52-.22a1.89,1.89,0,0,1,.07,1.27c1-.9,1.15.22,1.8.15A2,2,0,0,1,8.12,290.21Z"/><path class="cls-2" d="M9.54,284a1.11,1.11,0,0,0-.82,1.2A1.11,1.11,0,0,0,9.54,284Z"/></g></svg>